#N canvas 174 153 881 582 10;
#X obj 144 12 LFO;
#X obj 644 18 tgl 30 0 empty empty DSP 6 15 0 10 -162280 -1 -1 0 1
;
#X msg 643 53 \; pd dsp \$1;
#X obj 97 525 s~ lout;
#X obj 174 525 s~ rout;
#X obj 74 129 VCA;
#X obj 518 92 monitor;
#X obj 97 336 reverb;
#X obj 174 194 VCF;
#X obj 233 336 fdelay;
#X obj 166 557 s~ dlyout;
#X obj 97 299 r~ dlyout;
#X obj 13 12 VCO;
#X obj 97 497 hip~ 1;
#X obj 174 497 hip~ 1;
#X obj 309 74 LFO;
#X obj 381 314 LFO;
#X obj 233 434 VCF;
#X obj 518 65 r~ lout;
#X obj 802 65 r~ rout;
#X obj 580 408 notein 1;
#X obj 575 479 s~ md;
#X obj 583 430 mtof;
#X obj 582 452 phasor~;
#X connect 0 0 5 1;
#X connect 1 0 2 0;
#X connect 5 0 8 0;
#X connect 7 0 13 0;
#X connect 7 1 14 0;
#X connect 8 0 7 1;
#X connect 8 0 7 0;
#X connect 8 0 9 0;
#X connect 9 0 17 0;
#X connect 11 0 7 0;
#X connect 11 0 7 1;
#X connect 12 0 5 0;
#X connect 13 0 3 0;
#X connect 14 0 4 0;
#X connect 15 0 8 1;
#X connect 16 0 17 1;
#X connect 17 0 10 0;
#X connect 18 0 6 0;
#X connect 19 0 6 1;
#X connect 20 0 22 0;
#X connect 22 0 23 0;
#X connect 23 0 21 0;
