#N canvas 1038 100 636 472 10;
#X obj 25 291 output~;
#X obj 25 79 phasor~;
#X obj 25 110 cos~;
#X obj 25 138 *~ 2;
#X obj 25 166 +~ 2;
#X obj 64 110 r depth;
#X obj 28 16 hsl 100 25 0 10 0 0 empty empty empty -2 -8 0 10 -262144
-1 -1 800 1;
#X floatatom 39 52 5 0 0 0 - - -;
#X obj 141 110 +~ 0.5;
#X obj 141 138 wrap~;
#X obj 141 166 cos~;
#X obj 141 194 *~ 2;
#X obj 141 222 +~ 2;
#X obj 180 166 r depth;
#X obj 168 16 hsl 100 25 0 3 0 0 empty empty empty -2 -8 0 10 -262144
-1 -1 9900 1;
#X floatatom 175 52 5 0 0 0 - - -;
#X obj 165 79 s depth;
#X obj 141 250 vd~ phase2;
#X obj 141 278 *~ 0.8;
#X obj 234 164 vsl 25 100 -1 0 0 0 empty empty empty 0 -9 0 10 -262144
-1 -1 5600 1;
#X obj 25 194 vd~ phase1;
#X obj 66 222 *~ 0.8;
#X obj 99 194 r fb;
#X obj 234 305 s fb;
#X floatatom 244 278 5 0 0 0 - - -;
#X obj 119 362 delwrite~ phase1 100;
#X obj 140 334 delwrite~ phase2 100;
#X obj 107 300 adc~;
#X connect 1 0 2 0;
#X connect 1 0 8 0;
#X connect 2 0 3 0;
#X connect 3 0 4 0;
#X connect 4 0 20 0;
#X connect 5 0 3 1;
#X connect 5 0 4 1;
#X connect 6 0 1 0;
#X connect 6 0 7 0;
#X connect 8 0 9 0;
#X connect 9 0 10 0;
#X connect 10 0 11 0;
#X connect 11 0 12 0;
#X connect 12 0 17 0;
#X connect 13 0 11 1;
#X connect 13 0 12 1;
#X connect 14 0 15 0;
#X connect 14 0 16 0;
#X connect 17 0 18 0;
#X connect 17 0 0 0;
#X connect 17 0 0 1;
#X connect 18 0 26 0;
#X connect 19 0 18 1;
#X connect 19 0 24 0;
#X connect 19 0 23 0;
#X connect 20 0 21 0;
#X connect 20 0 0 0;
#X connect 20 0 0 1;
#X connect 21 0 25 0;
#X connect 22 0 21 1;
#X connect 27 0 25 0;
#X connect 27 0 26 0;
