#N canvas 663 68 881 596 10;
#X obj 604 24 tgl 30 0 empty empty DSP 6 15 0 10 -162280 -1 -1 0 1
;
#X msg 603 59 \; pd dsp \$1;
#N canvas 0 50 450 250 (subpatch) 0;
#X array oscil 100 float 3;
#A 0 -0.000142068 -0.0001143 -8.05753e-005 -3.50068e-005 1.42222e-005
3.48799e-005 6.19577e-005 7.88947e-005 9.95776e-005 9.35824e-005 7.42851e-005
5.01972e-005 2.19435e-005 -6.29354e-006 -1.96026e-005 -2.60164e-005
-3.15124e-005 -3.86747e-005 -6.59648e-005 -5.4084e-005 -5.65675e-005
-5.20392e-005 -5.52767e-005 -5.08408e-005 -2.78394e-005 -7.04961e-006
9.42895e-006 4.84384e-005 8.16575e-005 0.000111941 0.000155808 0.000205115
0.000244735 0.000292025 0.000308276 0.000327518 0.000344874 0.000345201
0.000335635 0.000307914 0.000273367 0.000236031 0.000193699 0.000139825
0.000100064 5.74629e-005 1.0731e-006 -6.9311e-005 -9.93332e-005 -9.49529e-005
-0.000104331 -9.59443e-005 -8.50111e-005 -6.45572e-005 -4.10402e-005
-4.73827e-007 2.29559e-005 3.76891e-005 8.72212e-005 0.000116652 0.000151959
0.000211661 0.0002641 0.000309675 0.000315594 0.000301209 0.000303267
0.000295435 0.000280662 0.000247999 0.00020042 0.000162474 0.000153617
0.000129442 0.000119885 0.00013163 0.00012922 0.000122183 0.00010266
9.42831e-005 8.57826e-005 6.82695e-005 5.83188e-005 5.31835e-005 4.54825e-005
4.23763e-005 4.15573e-005 4.84127e-005 3.15979e-005 3.50817e-005 4.40875e-005
6.09195e-005 8.74494e-005 0.000139041 0.000174625 0.000221559 0.000255252
0.000295677 0.000319119 0.000345129;
#X coords 0 1 100 -1 200 140 1;
#X restore 582 414 graph;
#X obj 573 215 env~;
#X obj 573 237 - 100;
#X obj 574 269 vu 15 120 empty empty -1 -8 0 10 -66577 -1 1 0;
#X obj 699 24 tgl 30 0 empty empty Osc 6 15 0 10 -162280 -1 -1 1 1
;
#X obj 699 59 metro 50;
#X obj 699 82 tabwrite~ oscil;
#X obj 768 59 r~ leftch;
#X obj 612 215 s~ leftch;
#X obj 573 189 *~;
#X obj 688 215 dac~;
#X obj 756 215 env~;
#X obj 756 237 - 100;
#X obj 757 269 vu 15 120 empty empty -1 -8 0 10 -66577 -1 1 0;
#X obj 756 189 *~;
#X obj 666 111 vsl 25 75 0 0.96 0 0 empty empty empty 0 -9 0 10 -262144
-1 -1 7000 1;
#X obj 795 215 s~ rightch;
#X obj 163 32 vsl 25 55 0 15 0 0 empty empty empty 0 -9 0 10 -262144
-1 -1 1100 1;
#X obj 254 32 vradio 15 1 0 4 empty empty empty 0 -8 0 10 -262144 -1
-1 1;
#X text 220 32 Sine;
#X text 197 47 Sawtooth;
#X text 196 62 Triangle;
#X text 207 77 Square;
#X obj 178 137 +~ 1;
#X obj 178 159 /~ 2;
#X obj 178 181 *~;
#X obj 48 220 *~;
#X obj 178 203 expr~ 1 - $v1;
#X floatatom 196 96 5 0 0 0 - - -;
#X text 196 11 AM LFO;
#X obj 203 336 freeverb~;
#N canvas 1051 110 707 586 multiosc 0;
#X obj 25 36 osc~;
#X obj 71 36 phasor~;
#X obj 50 62 *~ 2;
#X obj 50 84 -~ 1;
#X obj 147 61 expr~ $v1 > 0.5;
#X obj 147 83 *~ 2;
#X obj 147 105 -~ 1;
#X obj 98 62 *~ -1;
#X obj 98 84 +~ 1;
#X obj 98 106 min~;
#X obj 98 128 -~ 0.25;
#X obj 98 150 *~ 4;
#X obj 258 188 select 0 1 2 3;
#X obj 66 229 *~;
#X obj 96 229 *~;
#X obj 126 229 *~;
#X obj 156 229 *~;
#X msg 222 188 0;
#X msg 258 212 1;
#X msg 288 212 1;
#X msg 318 212 1;
#X msg 348 212 1;
#X obj 25 11 inlet;
#X obj 222 156 inlet;
#X obj 93 267 outlet~;
#X obj 276 129 loadbang;
#X msg 276 156 0;
#X connect 0 0 13 0;
#X connect 1 0 2 0;
#X connect 1 0 4 0;
#X connect 1 0 7 0;
#X connect 1 0 9 0;
#X connect 2 0 3 0;
#X connect 3 0 14 0;
#X connect 4 0 5 0;
#X connect 5 0 6 0;
#X connect 6 0 16 0;
#X connect 7 0 8 0;
#X connect 8 0 9 1;
#X connect 9 0 10 0;
#X connect 10 0 11 0;
#X connect 11 0 15 0;
#X connect 12 0 18 0;
#X connect 12 1 19 0;
#X connect 12 2 20 0;
#X connect 12 3 21 0;
#X connect 13 0 24 0;
#X connect 14 0 24 0;
#X connect 15 0 24 0;
#X connect 16 0 24 0;
#X connect 17 0 13 1;
#X connect 17 0 14 1;
#X connect 17 0 15 1;
#X connect 17 0 16 1;
#X connect 18 0 13 1;
#X connect 19 0 14 1;
#X connect 20 0 15 1;
#X connect 21 0 16 1;
#X connect 22 0 0 0;
#X connect 22 0 1 0;
#X connect 23 0 17 0;
#X connect 23 0 12 0;
#X connect 25 0 26 0;
#X connect 26 0 12 0;
#X restore 178 116 pd multiosc;
#X obj 313 32 vsl 25 55 0 10 0 0 empty empty empty 0 -9 0 10 -262144
-1 -1 300 1;
#X obj 404 32 vradio 15 1 0 4 empty empty empty 0 -8 0 10 -262144 -1
-1 2;
#X text 370 32 Sine;
#X text 347 47 Sawtooth;
#X text 346 62 Triangle;
#X text 357 77 Square;
#X obj 372 156 hsl 45 25 0 10000 0 0 empty empty empty -2 -8 0 10 -262144
-1 -1 900 1;
#X obj 328 137 +~ 1;
#X obj 328 159 /~ 2;
#X obj 328 181 *~;
#X floatatom 346 96 5 0 0 0 - - -;
#N canvas 1051 110 707 586 multiosc 0;
#X obj 25 36 osc~;
#X obj 71 36 phasor~;
#X obj 50 62 *~ 2;
#X obj 50 84 -~ 1;
#X obj 147 61 expr~ $v1 > 0.5;
#X obj 147 83 *~ 2;
#X obj 147 105 -~ 1;
#X obj 98 62 *~ -1;
#X obj 98 84 +~ 1;
#X obj 98 106 min~;
#X obj 98 128 -~ 0.25;
#X obj 98 150 *~ 4;
#X obj 258 188 select 0 1 2 3;
#X obj 66 229 *~;
#X obj 96 229 *~;
#X obj 126 229 *~;
#X obj 156 229 *~;
#X msg 222 188 0;
#X msg 258 212 1;
#X msg 288 212 1;
#X msg 318 212 1;
#X msg 348 212 1;
#X obj 25 11 inlet;
#X obj 222 156 inlet;
#X obj 93 267 outlet~;
#X obj 276 129 loadbang;
#X msg 276 156 0;
#X connect 0 0 13 0;
#X connect 1 0 2 0;
#X connect 1 0 4 0;
#X connect 1 0 7 0;
#X connect 1 0 9 0;
#X connect 2 0 3 0;
#X connect 3 0 14 0;
#X connect 4 0 5 0;
#X connect 5 0 6 0;
#X connect 6 0 16 0;
#X connect 7 0 8 0;
#X connect 8 0 9 1;
#X connect 9 0 10 0;
#X connect 10 0 11 0;
#X connect 11 0 15 0;
#X connect 12 0 18 0;
#X connect 12 1 19 0;
#X connect 12 2 20 0;
#X connect 12 3 21 0;
#X connect 13 0 24 0;
#X connect 14 0 24 0;
#X connect 15 0 24 0;
#X connect 16 0 24 0;
#X connect 17 0 13 1;
#X connect 17 0 14 1;
#X connect 17 0 15 1;
#X connect 17 0 16 1;
#X connect 18 0 13 1;
#X connect 19 0 14 1;
#X connect 20 0 15 1;
#X connect 21 0 16 1;
#X connect 22 0 0 0;
#X connect 22 0 1 0;
#X connect 23 0 17 0;
#X connect 23 0 12 0;
#X connect 25 0 26 0;
#X connect 26 0 12 0;
#X restore 328 116 pd multiosc;
#X text 346 11 VCF LFO;
#X obj 293 238 hsl 55 25 0 10 0 0 empty empty empty -2 -8 0 10 -262144
-1 -1 3600 1;
#X obj 203 247 vcf~ 220 1;
#X obj 328 203 +~;
#X obj 372 186 hsl 45 25 0 1000 0 0 empty empty empty -2 -8 0 10 -262144
-1 -1 100 1;
#X floatatom 429 181 5 0 0 0 - - -;
#X floatatom 429 211 5 0 0 0 - - -;
#X text 427 165 Maximum;
#X text 427 196 Minimum;
#X text 356 248 Resonance;
#X floatatom 358 263 5 0 0 0 - - -;
#X text 217 139 Depth;
#X obj 222 156 hsl 55 25 0 1 0 0 empty empty empty -2 -8 0 10 -262144
-1 -1 3700 1;
#X obj 292 286 hsl 55 25 0 1 0 0 empty empty empty -2 -8 0 10 -262144
-1 -1 2000 1;
#X msg 289 319 dry \$1;
#X obj 362 286 hsl 55 25 0 1 0 0 empty empty empty -2 -8 0 10 -262144
-1 -1 2800 1;
#X msg 359 319 wet \$1;
#X obj 432 286 hsl 55 25 0 1 0 0 empty empty empty -2 -8 0 10 -262144
-1 -1 3000 1;
#X msg 429 319 roomsize \$1;
#X obj 203 382 s~ lout;
#X obj 271 382 s~ rout;
#X obj 572 164 r~ lout;
#X obj 755 164 r~ rout;
#X obj 99 364 vd~ dly;
#X obj 102 308 hsl 55 25 0 1000 0 0 empty empty empty -2 -8 0 10 -262144
-1 -1 300 1;
#X obj 48 279 delwrite~ dly 5000;
#X obj 175 410 hsl 55 25 0 1 0 0 empty empty empty -2 -8 0 10 -262144
-1 -1 3200 1;
#X obj 140 418 *~;
#X obj 48 254 r~ dlyfb;
#X obj 140 444 s~ dlyfb;
#X obj 99 340 sig~;
#X obj 47 193 adc~;
#X obj 362 498 writesf~ 2;
#X obj 300 480 r~ lefch;
#X obj 436 481 r~ rightch;
#X msg 372 450 start;
#X msg 421 450 stop;
#X msg 362 420 open ProcessedInput.wav;
#X connect 0 0 1 0;
#X connect 3 0 4 0;
#X connect 4 0 5 0;
#X connect 6 0 7 0;
#X connect 7 0 8 0;
#X connect 9 0 8 0;
#X connect 11 0 3 0;
#X connect 11 0 10 0;
#X connect 11 0 12 0;
#X connect 13 0 14 0;
#X connect 14 0 15 0;
#X connect 16 0 13 0;
#X connect 16 0 18 0;
#X connect 16 0 12 1;
#X connect 17 0 16 1;
#X connect 17 0 11 1;
#X connect 19 0 30 0;
#X connect 19 0 33 0;
#X connect 20 0 33 1;
#X connect 25 0 26 0;
#X connect 26 0 27 0;
#X connect 27 0 29 0;
#X connect 28 0 48 0;
#X connect 29 0 28 1;
#X connect 32 0 65 0;
#X connect 32 1 66 0;
#X connect 33 0 25 0;
#X connect 34 0 44 0;
#X connect 34 0 45 0;
#X connect 35 0 45 1;
#X connect 40 0 43 1;
#X connect 40 0 51 0;
#X connect 41 0 42 0;
#X connect 42 0 43 0;
#X connect 43 0 49 0;
#X connect 45 0 41 0;
#X connect 47 0 48 2;
#X connect 47 0 56 0;
#X connect 48 0 32 0;
#X connect 48 0 32 1;
#X connect 48 0 71 0;
#X connect 48 0 73 0;
#X connect 49 0 48 1;
#X connect 50 0 49 1;
#X connect 50 0 52 0;
#X connect 58 0 27 1;
#X connect 59 0 60 0;
#X connect 60 0 32 0;
#X connect 61 0 62 0;
#X connect 62 0 32 0;
#X connect 63 0 64 0;
#X connect 64 0 32 0;
#X connect 67 0 11 0;
#X connect 68 0 16 0;
#X connect 69 0 73 0;
#X connect 69 0 32 0;
#X connect 69 0 32 1;
#X connect 70 0 76 0;
#X connect 72 0 73 1;
#X connect 73 0 75 0;
#X connect 74 0 71 0;
#X connect 76 0 69 0;
#X connect 77 0 28 0;
#X connect 79 0 78 0;
#X connect 80 0 78 1;
#X connect 81 0 78 0;
#X connect 82 0 78 0;
#X connect 83 0 78 0;
