#N canvas 952 240 881 570 10;
#X obj 94 3 LFO;
#X obj 644 18 tgl 30 0 empty empty DSP 6 15 0 10 -162280 -1 -1 1 1
;
#X msg 643 53 \; pd dsp \$1;
#X obj 518 65 r~ lout;
#X obj 802 65 r~ rout;
#X obj 47 486 s~ lout;
#X obj 124 486 s~ rout;
#X obj 24 120 VCA;
#X obj 518 92 monitor;
#X obj 47 327 reverb;
#X obj 124 185 VCF;
#X obj 259 65 LFO;
#X obj 183 327 fdelay;
#X obj 116 548 s~ dlyout;
#X obj 47 290 r~ dlyout;
#X obj 24 96 adc~;
#X obj 331 305 LFO;
#X obj 183 425 VCF;
#X connect 0 0 7 1;
#X connect 1 0 2 0;
#X connect 3 0 8 0;
#X connect 4 0 8 1;
#X connect 7 0 10 0;
#X connect 9 0 5 0;
#X connect 9 1 6 0;
#X connect 10 0 9 1;
#X connect 10 0 9 0;
#X connect 10 0 12 0;
#X connect 11 0 10 1;
#X connect 12 0 17 0;
#X connect 14 0 9 0;
#X connect 14 0 9 1;
#X connect 15 0 7 0;
#X connect 16 0 17 1;
#X connect 17 0 13 0;
