#N canvas 1199 191 450 300 10;
#X obj 122 19 osc~ 0.1;
#X obj 122 43 *~ 0.3;
#X obj 122 66 +~ 0.6;
#X obj 189 49 osc~ 10;
#X obj 189 72 *~ 10000;
#X obj 189 95 clip~ -1 1;
#X obj 138 90 *~ 100;
#X obj 138 113 *~;
#X msg 174 121 400;
#X floatatom 174 144 5 0 0 0 - - -;
#X obj 138 160 +~;
#X obj 138 183 osc~;
#X obj 123 207 *~;
#X obj 123 231 output~;
#X text 246 184 https://redd.it/54ia7q;
#X connect 0 0 1 0;
#X connect 1 0 2 0;
#X connect 2 0 6 0;
#X connect 2 0 12 0;
#X connect 3 0 4 0;
#X connect 4 0 5 0;
#X connect 5 0 7 1;
#X connect 6 0 7 0;
#X connect 7 0 10 0;
#X connect 8 0 9 0;
#X connect 9 0 10 1;
#X connect 10 0 11 0;
#X connect 11 0 12 1;
#X connect 12 0 13 0;
#X connect 12 0 13 1;
