#N canvas 231 129 881 590 10;
#X obj 604 24 tgl 30 0 empty empty DSP 6 15 0 10 -162280 -1 -1 0 1
;
#X msg 603 59 \; pd dsp \$1;
#N canvas 0 50 450 250 (subpatch) 0;
#X array oscil 100 float 3;
#A 0 -0.0131675 -0.0159639 -0.0188099 -0.0216598 -0.0245874 -0.0274958
-0.0305019 -0.033352 -0.0360227 -0.0382544 -0.0399582 -0.0410873 -0.0416916
-0.0417093 -0.0411884 -0.040214 -0.0387322 -0.0369587 -0.0346116 -0.0315793
-0.0281202 -0.0243814 -0.0203958 -0.0162725 -0.0119945 -0.00758685
-0.00299362 0.00188618 0.00697574 0.0121188 0.0171721 0.0220229 0.0266608
0.0310591 0.0350515 0.0385506 0.0415901 0.043925 0.0455066 0.0464045
0.0467904 0.0468618 0.0464672 0.0454777 0.0437774 0.0412532 0.0379492
0.033953 0.0295081 0.0247569 0.0197654 0.0145718 0.00912359 0.00362367
-0.00210045 -0.00767628 -0.0132232 -0.0185426 -0.023657 -0.028383 -0.032669
-0.0364631 -0.0396437 -0.042126 -0.0440898 -0.0455786 -0.0464131 -0.0465658
-0.0459612 -0.0446984 -0.0426409 -0.0397563 -0.0362696 -0.0323526 -0.0282755
-0.0243012 -0.0204797 -0.0168246 -0.0133467 -0.0100789 -0.00713005
-0.00460045 -0.00233692 -0.00046655 0.00103236 0.00202418 0.00254663
0.00262822 0.0023278 0.00176243 0.00108007 0.000339841 -0.000435438
-0.00123745 -0.00209009 -0.00293903 -0.00368051 -0.00454472 -0.00547062
-0.00628892;
#X coords 0 1 100 -1 200 140 1;
#X restore 582 414 graph;
#X obj 573 215 env~;
#X obj 573 237 - 100;
#X obj 574 269 vu 15 120 empty empty -1 -8 0 10 -66577 -1 1 0;
#X obj 699 24 tgl 30 0 empty empty Osc 6 15 0 10 -162280 -1 -1 1 1
;
#X obj 699 59 metro 50;
#X obj 699 82 tabwrite~ oscil;
#X obj 768 59 r~ leftch;
#X obj 612 215 s~ leftch;
#X obj 573 189 *~;
#X obj 688 215 dac~;
#X obj 756 215 env~;
#X obj 756 237 - 100;
#X obj 757 269 vu 15 120 empty empty -1 -8 0 10 -66577 -1 1 0;
#X obj 756 189 *~;
#X obj 680 111 vsl 25 75 0 0.96 0 0 empty empty empty 0 -9 0 10 -262144
-1 -1 1300 1;
#X obj 795 215 s~ rightch;
#X obj 105 68 vradio 15 1 0 4 empty empty empty 0 -8 0 10 -262144 -1
-1 0;
#X text 71 68 Sine;
#X text 48 83 Sawtooth;
#X text 48 98 Triangle;
#X text 59 113 Square;
#N canvas 1051 110 707 586 multiosc 0;
#X obj 25 89 osc~;
#X obj 71 89 phasor~;
#X obj 50 115 *~ 2;
#X obj 50 137 -~ 1;
#X obj 147 114 expr~ $v1 > 0.5;
#X obj 147 136 *~ 2;
#X obj 147 158 -~ 1;
#X obj 98 115 *~ -1;
#X obj 98 137 +~ 1;
#X obj 98 159 min~;
#X obj 98 181 -~ 0.25;
#X obj 98 203 *~ 4;
#X obj 258 241 select 0 1 2 3;
#X obj 66 282 *~;
#X obj 96 282 *~;
#X obj 126 282 *~;
#X obj 156 282 *~;
#X msg 222 241 0;
#X msg 258 265 1;
#X msg 288 265 1;
#X msg 318 265 1;
#X msg 348 265 1;
#X obj 25 11 inlet;
#X obj 222 209 inlet;
#X obj 93 320 outlet~;
#X obj 276 182 loadbang;
#X msg 276 209 0;
#X obj 25 56 line~;
#X msg 25 34 \$1 50;
#X connect 0 0 13 0;
#X connect 1 0 2 0;
#X connect 1 0 4 0;
#X connect 1 0 7 0;
#X connect 1 0 9 0;
#X connect 2 0 3 0;
#X connect 3 0 14 0;
#X connect 4 0 5 0;
#X connect 5 0 6 0;
#X connect 6 0 16 0;
#X connect 7 0 8 0;
#X connect 8 0 9 1;
#X connect 9 0 10 0;
#X connect 10 0 11 0;
#X connect 11 0 15 0;
#X connect 12 0 18 0;
#X connect 12 1 19 0;
#X connect 12 2 20 0;
#X connect 12 3 21 0;
#X connect 13 0 24 0;
#X connect 14 0 24 0;
#X connect 15 0 24 0;
#X connect 16 0 24 0;
#X connect 17 0 13 1;
#X connect 17 0 14 1;
#X connect 17 0 15 1;
#X connect 17 0 16 1;
#X connect 18 0 13 1;
#X connect 19 0 14 1;
#X connect 20 0 15 1;
#X connect 21 0 16 1;
#X connect 22 0 28 0;
#X connect 23 0 17 0;
#X connect 23 0 12 0;
#X connect 25 0 26 0;
#X connect 26 0 12 0;
#X connect 27 0 0 0;
#X connect 27 0 1 0;
#X connect 28 0 27 0;
#X restore 31 158 pd multiosc;
#X obj 163 32 vsl 25 55 0 15 0 0 empty empty empty 0 -9 0 10 -262144
-1 -1 3100 1;
#X obj 254 32 vradio 15 1 0 4 empty empty empty 0 -8 0 10 -262144 -1
-1 3;
#X text 220 32 Sine;
#X text 197 47 Sawtooth;
#X text 196 62 Triangle;
#X text 207 77 Square;
#X obj 178 137 +~ 1;
#X obj 178 159 /~ 2;
#X obj 178 181 *~;
#X obj 48 220 *~;
#X obj 178 203 expr~ 1 - $v1;
#X floatatom 196 96 5 0 0 0 - - -;
#X obj 19 67 vsl 25 55 20 5000 0 0 empty empty empty 0 -9 0 10 -262144
-1 -1 0 1;
#X floatatom 48 136 5 0 0 0 - - -;
#X floatatom 19 40 5 20 200 0 - - -;
#X text 23 16 Main Oscillator;
#X text 196 11 AM LFO;
#X obj 203 336 freeverb~;
#N canvas 1051 110 707 586 multiosc 0;
#X obj 25 36 osc~;
#X obj 71 36 phasor~;
#X obj 50 62 *~ 2;
#X obj 50 84 -~ 1;
#X obj 147 61 expr~ $v1 > 0.5;
#X obj 147 83 *~ 2;
#X obj 147 105 -~ 1;
#X obj 98 62 *~ -1;
#X obj 98 84 +~ 1;
#X obj 98 106 min~;
#X obj 98 128 -~ 0.25;
#X obj 98 150 *~ 4;
#X obj 258 188 select 0 1 2 3;
#X obj 66 229 *~;
#X obj 96 229 *~;
#X obj 126 229 *~;
#X obj 156 229 *~;
#X msg 222 188 0;
#X msg 258 212 1;
#X msg 288 212 1;
#X msg 318 212 1;
#X msg 348 212 1;
#X obj 25 11 inlet;
#X obj 222 156 inlet;
#X obj 93 267 outlet~;
#X obj 276 129 loadbang;
#X msg 276 156 0;
#X connect 0 0 13 0;
#X connect 1 0 2 0;
#X connect 1 0 4 0;
#X connect 1 0 7 0;
#X connect 1 0 9 0;
#X connect 2 0 3 0;
#X connect 3 0 14 0;
#X connect 4 0 5 0;
#X connect 5 0 6 0;
#X connect 6 0 16 0;
#X connect 7 0 8 0;
#X connect 8 0 9 1;
#X connect 9 0 10 0;
#X connect 10 0 11 0;
#X connect 11 0 15 0;
#X connect 12 0 18 0;
#X connect 12 1 19 0;
#X connect 12 2 20 0;
#X connect 12 3 21 0;
#X connect 13 0 24 0;
#X connect 14 0 24 0;
#X connect 15 0 24 0;
#X connect 16 0 24 0;
#X connect 17 0 13 1;
#X connect 17 0 14 1;
#X connect 17 0 15 1;
#X connect 17 0 16 1;
#X connect 18 0 13 1;
#X connect 19 0 14 1;
#X connect 20 0 15 1;
#X connect 21 0 16 1;
#X connect 22 0 0 0;
#X connect 22 0 1 0;
#X connect 23 0 17 0;
#X connect 23 0 12 0;
#X connect 25 0 26 0;
#X connect 26 0 12 0;
#X restore 178 116 pd multiosc;
#X obj 313 32 vsl 25 55 0 10 0 0 empty empty empty 0 -9 0 10 -262144
-1 -1 3600 1;
#X obj 404 32 vradio 15 1 0 4 empty empty empty 0 -8 0 10 -262144 -1
-1 1;
#X text 370 32 Sine;
#X text 347 47 Sawtooth;
#X text 346 62 Triangle;
#X text 357 77 Square;
#X obj 372 156 hsl 45 25 0 10000 0 0 empty empty empty -2 -8 0 10 -262144
-1 -1 400 1;
#X obj 328 137 +~ 1;
#X obj 328 159 /~ 2;
#X obj 328 181 *~;
#X floatatom 346 96 5 0 0 0 - - -;
#N canvas 1051 110 707 586 multiosc 0;
#X obj 25 36 osc~;
#X obj 71 36 phasor~;
#X obj 50 62 *~ 2;
#X obj 50 84 -~ 1;
#X obj 147 61 expr~ $v1 > 0.5;
#X obj 147 83 *~ 2;
#X obj 147 105 -~ 1;
#X obj 98 62 *~ -1;
#X obj 98 84 +~ 1;
#X obj 98 106 min~;
#X obj 98 128 -~ 0.25;
#X obj 98 150 *~ 4;
#X obj 258 188 select 0 1 2 3;
#X obj 66 229 *~;
#X obj 96 229 *~;
#X obj 126 229 *~;
#X obj 156 229 *~;
#X msg 222 188 0;
#X msg 258 212 1;
#X msg 288 212 1;
#X msg 318 212 1;
#X msg 348 212 1;
#X obj 25 11 inlet;
#X obj 222 156 inlet;
#X obj 93 267 outlet~;
#X obj 276 129 loadbang;
#X msg 276 156 0;
#X connect 0 0 13 0;
#X connect 1 0 2 0;
#X connect 1 0 4 0;
#X connect 1 0 7 0;
#X connect 1 0 9 0;
#X connect 2 0 3 0;
#X connect 3 0 14 0;
#X connect 4 0 5 0;
#X connect 5 0 6 0;
#X connect 6 0 16 0;
#X connect 7 0 8 0;
#X connect 8 0 9 1;
#X connect 9 0 10 0;
#X connect 10 0 11 0;
#X connect 11 0 15 0;
#X connect 12 0 18 0;
#X connect 12 1 19 0;
#X connect 12 2 20 0;
#X connect 12 3 21 0;
#X connect 13 0 24 0;
#X connect 14 0 24 0;
#X connect 15 0 24 0;
#X connect 16 0 24 0;
#X connect 17 0 13 1;
#X connect 17 0 14 1;
#X connect 17 0 15 1;
#X connect 17 0 16 1;
#X connect 18 0 13 1;
#X connect 19 0 14 1;
#X connect 20 0 15 1;
#X connect 21 0 16 1;
#X connect 22 0 0 0;
#X connect 22 0 1 0;
#X connect 23 0 17 0;
#X connect 23 0 12 0;
#X connect 25 0 26 0;
#X connect 26 0 12 0;
#X restore 328 116 pd multiosc;
#X text 346 11 VCF LFO;
#X obj 293 238 hsl 55 25 0 10 0 0 empty empty empty -2 -8 0 10 -262144
-1 -1 5400 1;
#X obj 203 247 vcf~ 220 1;
#X obj 328 203 +~;
#X obj 372 186 hsl 45 25 0 1000 0 0 empty empty empty -2 -8 0 10 -262144
-1 -1 0 1;
#X floatatom 429 181 5 0 0 0 - - -;
#X floatatom 429 211 5 0 0 0 - - -;
#X text 427 165 Maximum;
#X text 427 196 Minimum;
#X text 356 248 Resonance;
#X floatatom 358 263 5 0 0 0 - - -;
#X text 217 139 Depth;
#X obj 222 156 hsl 55 25 0 1 0 0 empty empty empty -2 -8 0 10 -262144
-1 -1 5400 1;
#X obj 292 286 hsl 55 25 0 1 0 0 empty empty empty -2 -8 0 10 -262144
-1 -1 1500 1;
#X msg 289 319 dry \$1;
#X obj 362 286 hsl 55 25 0 1 0 0 empty empty empty -2 -8 0 10 -262144
-1 -1 5400 1;
#X msg 359 319 wet \$1;
#X obj 432 286 hsl 55 25 0 1 0 0 empty empty empty -2 -8 0 10 -262144
-1 -1 5400 1;
#X msg 429 319 roomsize \$1;
#X obj 203 382 s~ lout;
#X obj 271 382 s~ rout;
#X obj 572 164 r~ lout;
#X obj 755 164 r~ rout;
#X obj 99 364 vd~ dly;
#X obj 102 308 hsl 55 25 0 5000 0 0 empty empty empty -2 -8 0 10 -262144
-1 -1 1300 1;
#X obj 48 279 delwrite~ dly 5000;
#X obj 175 410 hsl 55 25 0 1 0 0 empty empty empty -2 -8 0 10 -262144
-1 -1 5400 1;
#X obj 140 418 *~;
#X obj 48 254 r~ dlyfb;
#X obj 140 444 s~ dlyfb;
#X obj 99 340 sig~;
#X connect 0 0 1 0;
#X connect 3 0 4 0;
#X connect 4 0 5 0;
#X connect 6 0 7 0;
#X connect 7 0 8 0;
#X connect 9 0 8 0;
#X connect 11 0 3 0;
#X connect 11 0 10 0;
#X connect 11 0 12 0;
#X connect 13 0 14 0;
#X connect 14 0 15 0;
#X connect 16 0 13 0;
#X connect 16 0 18 0;
#X connect 16 0 12 1;
#X connect 17 0 16 1;
#X connect 17 0 11 1;
#X connect 19 0 24 1;
#X connect 24 0 34 0;
#X connect 25 0 36 0;
#X connect 25 0 43 0;
#X connect 26 0 43 1;
#X connect 31 0 32 0;
#X connect 32 0 33 0;
#X connect 33 0 35 0;
#X connect 34 0 58 0;
#X connect 35 0 34 1;
#X connect 37 0 38 0;
#X connect 37 0 24 0;
#X connect 39 0 37 0;
#X connect 42 0 75 0;
#X connect 42 1 76 0;
#X connect 43 0 31 0;
#X connect 44 0 54 0;
#X connect 44 0 55 0;
#X connect 45 0 55 1;
#X connect 50 0 53 1;
#X connect 50 0 61 0;
#X connect 51 0 52 0;
#X connect 52 0 53 0;
#X connect 53 0 59 0;
#X connect 55 0 51 0;
#X connect 57 0 58 2;
#X connect 57 0 66 0;
#X connect 58 0 42 0;
#X connect 58 0 42 1;
#X connect 58 0 81 0;
#X connect 58 0 83 0;
#X connect 59 0 58 1;
#X connect 60 0 59 1;
#X connect 60 0 62 0;
#X connect 68 0 33 1;
#X connect 69 0 70 0;
#X connect 70 0 42 0;
#X connect 71 0 72 0;
#X connect 72 0 42 0;
#X connect 73 0 74 0;
#X connect 74 0 42 0;
#X connect 77 0 11 0;
#X connect 78 0 16 0;
#X connect 79 0 75 0;
#X connect 79 0 76 0;
#X connect 79 0 83 0;
#X connect 80 0 86 0;
#X connect 82 0 83 1;
#X connect 83 0 85 0;
#X connect 84 0 81 0;
#X connect 86 0 79 0;
