#N canvas 723 239 714 545 10;
#X obj 19 136 osc~;
#X obj 65 136 phasor~;
#X obj 44 162 *~ 2;
#X obj 44 184 -~ 1;
#X obj 141 161 expr~ $v1 > 0.5;
#X obj 141 183 *~ 2;
#X obj 141 205 -~ 1;
#X obj 92 162 *~ -1;
#X obj 92 184 +~ 1;
#X obj 92 206 min~;
#X obj 92 228 -~ 0.25;
#X obj 92 250 *~ 4;
#X obj 252 288 select 0 1 2 3;
#X obj 60 329 *~;
#X obj 90 329 *~;
#X obj 120 329 *~;
#X obj 150 329 *~;
#X msg 216 288 0;
#X msg 252 312 1;
#X msg 282 312 1;
#X msg 312 312 1;
#X msg 342 312 1;
#X obj 270 229 loadbang;
#X msg 270 256 0;
#X obj 19 32 vsl 25 55 0 15 0 0 empty empty empty 0 -9 0 10 -262144
-1 -1 0 1;
#X obj 54 30 vradio 15 1 0 4 empty empty empty 0 -8 0 10 -262144 -1
-1 0;
#X text 70 28 Sine;
#X text 70 44 Sawtooth;
#X text 71 58 Triangle;
#X text 71 73 Square;
#X floatatom 19 94 5 0 0 1 - - -;
#X obj 91 365 +~ 1;
#X obj 91 387 /~ 2;
#X obj 91 409 outlet~;
#X connect 0 0 13 0;
#X connect 1 0 2 0;
#X connect 1 0 4 0;
#X connect 1 0 7 0;
#X connect 1 0 9 0;
#X connect 2 0 3 0;
#X connect 3 0 14 0;
#X connect 4 0 5 0;
#X connect 5 0 6 0;
#X connect 6 0 16 0;
#X connect 7 0 8 0;
#X connect 8 0 9 1;
#X connect 9 0 10 0;
#X connect 10 0 11 0;
#X connect 11 0 15 0;
#X connect 12 0 18 0;
#X connect 12 1 19 0;
#X connect 12 2 20 0;
#X connect 12 3 21 0;
#X connect 13 0 31 0;
#X connect 14 0 31 0;
#X connect 15 0 31 0;
#X connect 16 0 31 0;
#X connect 17 0 13 1;
#X connect 17 0 14 1;
#X connect 17 0 15 1;
#X connect 17 0 16 1;
#X connect 18 0 13 1;
#X connect 19 0 14 1;
#X connect 20 0 15 1;
#X connect 21 0 16 1;
#X connect 22 0 23 0;
#X connect 23 0 12 0;
#X connect 24 0 30 0;
#X connect 24 0 0 0;
#X connect 24 0 1 0;
#X connect 25 0 17 0;
#X connect 25 0 12 0;
#X connect 31 0 32 0;
#X connect 32 0 33 0;
#X coords 0 -1 1 1 120 110 1 10 10;
