#N canvas 665 491 331 291 10;
#X obj 22 27 hsl 55 25 0 10000 0 1 empty empty empty -2 -8 0 10 -262144
-1 -1 300 1;
#X obj 60 182 *~;
#X obj 22 97 hsl 55 25 0 10 0 1 empty empty empty -2 -8 0 10 -262144
-1 -1 2800 1;
#X obj 60 204 +~;
#X obj 22 62 hsl 55 25 0 1000 0 1 empty empty empty -2 -8 0 10 -262144
-1 -1 100 1;
#X floatatom 89 37 5 0 0 0 - - -;
#X floatatom 89 72 5 0 0 0 - - -;
#X text 87 21 Maximum;
#X text 87 57 Minimum;
#X text 87 92 Resonance;
#X floatatom 89 107 5 0 0 0 - - -;
#X obj 13 204 inlet~;
#X obj 43 254 outlet~;
#X obj 60 155 inlet~;
#X obj 43 227 vcf~ 0;
#X connect 0 0 5 0;
#X connect 1 0 3 0;
#X connect 2 0 10 0;
#X connect 3 0 14 1;
#X connect 4 0 6 0;
#X connect 5 0 1 1;
#X connect 6 0 3 1;
#X connect 10 0 14 2;
#X connect 11 0 14 0;
#X connect 13 0 1 0;
#X connect 14 0 12 0;
#X coords 0 -1 1 1 142 122 1 10 10;
